<?xml version="1.0" encoding="UTF-8"?>
<svg id="Layer_2" data-name="Layer 2" xmlns="http://www.w3.org/2000/svg" viewBox="0 0 174.94 51.99">
  <defs>
    <style>
      .cls-1, .cls-2 {
        fill: #231f20;
      }

      .cls-3 {
        stroke-width: .23px;
      }

      .cls-3, .cls-2, .cls-4 {
        stroke: #fff;
        stroke-miterlimit: 10;
      }

      .cls-3, .cls-4 {
        fill: none;
      }

      .cls-2 {
        stroke-width: .49px;
      }

      .cls-4 {
        stroke-width: .74px;
      }
    </style>
  </defs>
  <g id="Layer_1-2" data-name="Layer 1">
    <g>
      <path class="cls-1" d="M55.18,33.57s-5.62-7.01-11.91-7.76c-6.28-.74-11.49-.42-18.09.71-6.59,1.13-24.82,2.12-24.82,2.12l24.21,1.64,9.58.39,1.51,1.28-2.1,1.22L.25,34.65l33.78,2.3,1.5,1.49-2.11,1.64L.14,40.93l33.21,3.34,2.05,1.71-3.78,1.4L.03,46.79l31.52,4.35s3.56,1.74,12.35.23c8.79-1.51,11.1-7.96,11.1-7.96l.18-9.84Z"/>
      <path class="cls-1" d="M140.8,47.48c-1.87.54-3.96.82-6.17.78-4.54-.08-8.54-1.48-11.01-3.59l-68.62-1.27.18-9.84,68.62,1.27c2.55-2.01,6.59-3.26,11.13-3.18,2.08.04,4.07.35,5.83.92,2.91-2.3,7.15-3.7,11.84-3.61s8.99,1.68,11.81,4.13c.07-.01.15-.01.23,0,5.39.1,9.71,3.44,9.63,7.43s-4.51,7.17-9.9,7.07c-.07,0-.15,0-.21-.02-2.91,2.36-7.2,3.79-11.97,3.71-4.53-.08-8.57-1.54-11.4-3.79Z"/>
      <path class="cls-3" d="M123.74,43.45s10.17,5.8,18.45,1.61c12.67,8.32,21.87.4,21.87.4,8.09-.76,8.16-4.99,8.16-4.99-3.1-4.65-7.99-4.64-7.99-4.64-12.37-8.58-21.87-.4-21.87-.4-8.99-4.78-18.5,1-18.5,1l-68.78,1.88,68.65,5.14Z"/>
      <path class="cls-3" d="M126.18,42.75s8.53,4.6,15.47,1.29c10.63,6.6,18.34.34,18.34.34,6.78-.59,6.84-3.95,6.84-3.95-2.6-3.69-6.7-3.68-6.7-3.68-10.38-6.81-18.34-.34-18.34-.34-7.54-3.79-15.51.78-15.51.78l-57.66,1.43,57.55,4.13Z"/>
    </g>
    <g>
      <g>
        <path class="cls-2" d="M6.25,2.39l119.88,4.19-.16,9.1L6.09,11.11s-13.25-4.42.16-8.72Z"/>
        <g>
          <path class="cls-2" d="M141.53,22.67c-9.49-.18-17.1-5.35-16.98-11.53S132.44.07,141.93.25c3.64.07,7,.87,9.76,2.18v-.05s22.6,9.65,22.6,9.65l-22.34,8.56c-2.91,1.37-6.52,2.15-10.42,2.08Z"/>
          <path class="cls-2" d="M174.29,12.03c-7.18-2.79-19.43-6.32-34.37-4.54-5.95.71-11.12,2.11-15.37,3.65"/>
          <path class="cls-2" d="M124.55,11.07c4.19,1.69,9.3,3.29,15.23,4.23,14.87,2.34,27.24-.72,34.51-3.23"/>
        </g>
      </g>
      <line class="cls-4" x1="124.55" y1="11.14" x2="3.8" y2="6.55"/>
    </g>
  </g>
</svg>