<?xml version="1.0" encoding="UTF-8"?>
<svg id="Layer_2" data-name="Layer 2" xmlns="http://www.w3.org/2000/svg" viewBox="0 0 182.89 185.05">
  <defs>
    <style>
      .cls-1 {
        fill: #8d8d8e;
      }

      .cls-1, .cls-2, .cls-3, .cls-4, .cls-5, .cls-6, .cls-7 {
        stroke-miterlimit: 10;
      }

      .cls-1, .cls-2, .cls-3, .cls-6 {
        stroke: #231f20;
      }

      .cls-1, .cls-7 {
        stroke-width: .25px;
      }

      .cls-2 {
        fill: #e6e7e8;
      }

      .cls-2, .cls-6 {
        stroke-width: .75px;
      }

      .cls-8 {
        font-size: 35.66px;
      }

      .cls-8, .cls-9, .cls-10, .cls-11 {
        fill: #231f20;
      }

      .cls-8, .cls-10, .cls-11 {
        font-family: ImprintMT-Shadow, 'Imprint MT Shadow';
      }

      .cls-3 {
        fill: #fff;
      }

      .cls-3, .cls-4, .cls-5 {
        stroke-width: .5px;
      }

      .cls-10 {
        font-size: 39.97px;
      }

      .cls-11 {
        font-size: 39.01px;
      }

      .cls-4 {
        fill: none;
      }

      .cls-4, .cls-5 {
        stroke: #fff;
      }

      .cls-5, .cls-7 {
        fill: #d71f26;
      }

      .cls-6 {
        fill: #212b5e;
      }

      .cls-7 {
        stroke: #fffeff;
      }

      .cls-12 {
        fill: #6d6e71;
      }

      .cls-13 {
        fill: #414042;
      }
    </style>
  </defs>
  <g id="Layer_1-2" data-name="Layer 1">
    <g>
      <ellipse class="cls-6" cx="91.44" cy="92.52" rx="91.07" ry="92.15"/>
      <circle class="cls-2" cx="90.94" cy="94.04" r="80.39"/>
      <polygon class="cls-1" points="93.66 180.72 179.38 111.05 179.38 115.11 93.66 184.45 93.66 180.72"/>
      <polygon class="cls-1" points="4.16 70.59 93.66 180.72 93.66 184.45 4.16 73.67 4.16 70.59"/>
      <rect class="cls-3" x="20.81" y="35.59" width="141.91" height="110.46" transform="translate(104.37 -37.68) rotate(50.9)"/>
      <g>
        <path class="cls-13" d="M139.52,51.86c0-4.63-3.75-8.38-8.38-8.38-1.79,0-3.45.57-4.81,1.53l10.48,13.02c1.66-1.53,2.71-3.72,2.71-6.16Z"/>
        <path class="cls-12" d="M53.7,146.06c0,4.63,3.75,8.38,8.38,8.38,2.19,0,4.18-.85,5.67-2.22l-10.48-13.02c-2.16,1.52-3.57,4.02-3.57,6.86Z"/>
        <path class="cls-9" d="M21.11,105.66c0,4.63,3.75,8.38,8.38,8.38,2.19,0,4.18-.85,5.67-2.22l-10.48-13.02c-2.16,1.52-3.57,4.02-3.57,6.86Z"/>
        <path class="cls-13" d="M38.71,126.08c0,4.63,3.75,8.38,8.38,8.38,1.79,0,3.45-.57,4.81-1.53l-10.48-13.02c-1.66,1.53-2.71,3.72-2.71,6.16Z"/>
        <path class="cls-12" d="M125.19,32.69c-.1-4.63-3.93-8.3-8.56-8.2-2.19.05-4.16.93-5.62,2.34l10.76,12.79c2.12-1.56,3.48-4.09,3.42-6.93Z"/>
        <path class="cls-9" d="M157.08,72.15c-.1-4.63-3.93-8.3-8.56-8.2-2.19.05-4.16.93-5.62,2.34l10.76,12.79c2.12-1.56,3.48-4.09,3.42-6.93Z"/>
      </g>
      <g>
        <path class="cls-5" d="M82.34,53.11c0,4.61-2.37,8.34-5.3,8.34s-5.3-3.73-5.3-8.34c0-1.76.35-3.41.94-4.75h-.02l4.36-11.05,4.25,10.76c.67,1.4,1.08,3.15,1.08,5.04Z"/>
        <path class="cls-4" d="M77.01,37.31c-1.25,3.51-2.81,9.48-1.84,16.72.39,2.88,1.1,5.38,1.86,7.42"/>
        <path class="cls-4" d="M77.03,37.31c1.25,3.51,2.81,9.48,1.84,16.72-.39,2.88-1.1,5.38-1.86,7.42"/>
      </g>
      <path class="cls-7" d="M84.82,119.01s-3.19,2.21-3.48,4.64-.1,4.43.48,6.96,1.19,9.54,1.19,9.54l.55-9.33.1-3.69.58-.59.58.8.97,12.8.77-13.01.68-.59.77.8.68,12.8,1.26-12.8.77-.8.68,1.44v12.16l1.74-12.16s.77-1.38,0-4.76-3.77-4.22-3.77-4.22h-4.54Z"/>
      <text class="cls-8" transform="translate(49.65 115.34)"><tspan x="0" y="0">&amp;</tspan></text>
      <text class="cls-11" transform="translate(105.36 118.46)"><tspan x="0" y="0">late</tspan></text>
      <text class="cls-10" transform="translate(26.83 88.26)"><tspan x="0" y="0">Palette</tspan></text>
      <path class="cls-9" d="M89.6,119.02h-5.03s.09-5.18.09-5.91v-17.47c0-1.45-.06-2.48-.19-3.09-.13-.61-.5-1.06-1.13-1.35-.63-.29-1.68-.44-3.16-.44v-1.09h13.64c.61,0,2.06.11,4.36.32.74.07,1.53.28,2.37.65.84.37,1.63.88,2.36,1.52s1.33,1.4,1.77,2.28c.45.88.67,1.83.67,2.87,0,1.15-.23,2.19-.68,3.11-.46.92-1.16,1.72-2.1,2.4-.95.67-2.14,1.2-3.57,1.57-1.43.37-3.1.56-5.01.56h-4.4v14.08ZM86.56,114.48v-18.14c0-1.63,0-2.69-.03-3.19-.02-.5-.11-.93-.26-1.29s-.42-.62-.81-.78-.99-.28-1.79-.35c.53.25.9.54,1.11.85.21.32.35.77.42,1.35.07.58.1,1.41.1,2.48v18.64M89.6,103.85h2.78c1.68,0,3.07-.2,4.18-.6,1.11-.4,1.96-1.08,2.56-2.04.59-.96.89-2.24.89-3.86,0-2.42-.81-4.23-2.44-5.43-.65-.48-1.3-.79-1.96-.93-.66-.15-1.48-.22-2.46-.22-1.12,0-1.93.16-2.43.48-.5.32-.81.79-.93,1.43-.13.63-.19,1.57-.19,2.82v8.37ZM97.19,103.64c1.59-.24,2.77-.87,3.55-1.88.78-1.02,1.17-2.46,1.17-4.32,0-1.97-.4-3.45-1.19-4.43-.79-.98-1.98-1.64-3.57-1.97.75.38,1.39.89,1.92,1.51.53.62.93,1.35,1.19,2.18.26.83.4,1.74.4,2.72,0,3.15-1.16,5.21-3.47,6.21Z"/>
    </g>
  </g>
</svg>