<?xml version="1.0" encoding="UTF-8"?>
<svg id="Layer_2" data-name="Layer 2" xmlns="http://www.w3.org/2000/svg" viewBox="0 0 82.9 84.19">
  <defs>
    <style>
      .cls-1 {
        fill: #8d8d8e;
        stroke-width: .25px;
      }

      .cls-1, .cls-2, .cls-3, .cls-4, .cls-5 {
        stroke-miterlimit: 10;
      }

      .cls-1, .cls-2, .cls-3, .cls-5 {
        stroke: #231f20;
      }

      .cls-2 {
        fill: #e6e7e8;
      }

      .cls-2, .cls-5 {
        stroke-width: .75px;
      }

      .cls-6, .cls-7, .cls-8 {
        fill: #231f20;
      }

      .cls-3 {
        fill: #fff;
      }

      .cls-3, .cls-4 {
        stroke-width: .5px;
      }

      .cls-9, .cls-4 {
        fill: #d71f26;
      }

      .cls-7 {
        font-size: 19.32px;
      }

      .cls-7, .cls-8 {
        font-family: ImprintMT-Shadow, 'Imprint MT Shadow';
      }

      .cls-4 {
        stroke: #fff;
      }

      .cls-5 {
        fill: #212b5e;
      }

      .cls-10 {
        fill: #6d6e71;
      }

      .cls-8 {
        font-size: 21.29px;
      }

      .cls-11 {
        fill: #414042;
      }
    </style>
  </defs>
  <g id="Layer_1-2" data-name="Layer 1">
    <g>
      <ellipse class="cls-5" cx="41.45" cy="42.11" rx="41.08" ry="41.56"/>
      <circle class="cls-2" cx="41.22" cy="42.79" r="36.26"/>
      <g>
        <path class="cls-11" d="M63.14,23.77c0-2.09-1.69-3.78-3.78-3.78-.81,0-1.56.26-2.17.69l4.73,5.87c.75-.69,1.22-1.68,1.22-2.78Z"/>
        <path class="cls-10" d="M24.42,66.25c0,2.09,1.69,3.78,3.78,3.78.99,0,1.88-.38,2.56-1l-4.73-5.87c-.97.68-1.61,1.81-1.61,3.09Z"/>
        <path class="cls-6" d="M9.73,48.03c0,2.09,1.69,3.78,3.78,3.78.99,0,1.88-.38,2.56-1l-4.73-5.87c-.97.68-1.61,1.81-1.61,3.09Z"/>
        <path class="cls-11" d="M17.67,57.24c0,2.09,1.69,3.78,3.78,3.78.81,0,1.56-.26,2.17-.69l-4.73-5.87c-.75.69-1.22,1.68-1.22,2.78Z"/>
        <path class="cls-10" d="M56.67,15.12c-.04-2.09-1.77-3.74-3.86-3.7-.99.02-1.87.42-2.53,1.06l4.85,5.77c.96-.7,1.57-1.85,1.54-3.13Z"/>
        <path class="cls-6" d="M71.05,32.92c-.04-2.09-1.77-3.74-3.86-3.7-.99.02-1.87.42-2.53,1.06l4.85,5.77c.96-.7,1.57-1.85,1.54-3.13Z"/>
      </g>
      <g>
        <polygon class="cls-1" points="42.14 82.15 81.13 50.45 81.13 52.3 42.14 83.84 42.14 82.15"/>
        <rect class="cls-3" x="8.99" y="16.12" width="64.56" height="50.25" transform="translate(47.25 -16.8) rotate(50.9)"/>
        <polygon class="cls-1" points="1.42 32.05 42.14 82.15 42.14 83.84 1.42 33.45 1.42 32.05"/>
      </g>
      <g>
        <path class="cls-4" d="M27.88,23.25c0,2.73-1.41,4.95-3.14,4.95s-3.14-2.21-3.14-4.95c0-1.05.21-2.02.56-2.82h-.01l2.58-6.55,2.52,6.38c.4.83.64,1.87.64,2.99Z"/>
        <path class="cls-4" d="M24.72,13.88c-.74,2.08-1.67,5.62-1.09,9.91.23,1.71.65,3.19,1.1,4.4"/>
        <path class="cls-4" d="M24.73,13.88c.74,2.08,1.67,5.62,1.09,9.91-.23,1.71-.65,3.19-1.1,4.4"/>
      </g>
      <text class="cls-8" transform="translate(21 41.99)"><tspan x="0" y="0">P</tspan></text>
      <path class="cls-9" d="M47.69,60.21s-1.62,1.15-1.77,2.42-.05,2.31.25,3.63.6,4.97.6,4.97l.28-4.86.05-1.92.29-.31.29.42.49,6.68.39-6.79.34-.31.39.42.34,6.68.64-6.68.39-.42.34.75v6.34l.88-6.34s.39-.72,0-2.48c-.39-1.76-1.92-2.2-1.92-2.2h-2.31Z"/>
      <text class="cls-7" transform="translate(32.54 48.32)"><tspan x="0" y="0">&amp;</tspan></text>
      <path class="cls-6" d="M50.62,59.81h-2.72s.05-2.81.05-3.2v-9.47c0-.79-.03-1.35-.1-1.68-.07-.33-.27-.57-.61-.73-.34-.16-.91-.24-1.71-.24v-.59h7.39c.33,0,1.12.06,2.36.17.4.04.83.15,1.28.35.46.2.88.47,1.28.82s.72.76.96,1.24c.24.48.37.99.37,1.55,0,.62-.12,1.19-.37,1.69-.25.5-.63.93-1.14,1.3-.51.37-1.16.65-1.93.85-.78.2-1.68.3-2.71.3h-2.39v7.63ZM48.97,57.35v-9.83c0-.88,0-1.46-.02-1.73-.01-.27-.06-.5-.14-.7s-.23-.33-.44-.42-.54-.15-.97-.19c.29.14.49.29.6.46.11.17.19.42.23.73.04.32.05.76.05,1.34v10.1M50.62,51.59h1.5c.91,0,1.67-.11,2.27-.33.6-.22,1.06-.59,1.39-1.11.32-.52.48-1.22.48-2.09,0-1.31-.44-2.29-1.32-2.94-.35-.26-.71-.43-1.06-.51-.36-.08-.8-.12-1.33-.12-.61,0-1.05.09-1.32.26-.27.17-.44.43-.51.77-.07.34-.1.85-.1,1.53v4.53ZM54.73,51.47c.86-.13,1.5-.47,1.92-1.02.42-.55.63-1.33.63-2.34,0-1.07-.21-1.87-.64-2.4-.43-.53-1.07-.89-1.93-1.07.41.21.76.48,1.04.82.29.34.5.73.64,1.18.14.45.21.94.21,1.47,0,1.7-.63,2.83-1.88,3.36Z"/>
    </g>
  </g>
</svg>